<svg xmlns="http://www.w3.org/2000/svg" xmlns:xlink="http://www.w3.org/1999/xlink" viewBox="0 0 604 288.46"><defs><style>.cls-1{fill:#f9ffff;}.cls-2{fill:url(#linear-gradient);}.cls-3{fill:url(#linear-gradient-2);}.cls-4{fill:url(#linear-gradient-3);}.cls-5{fill:url(#linear-gradient-4);}.cls-6{fill:url(#linear-gradient-5);}.cls-7{fill:url(#linear-gradient-6);}.cls-8{fill:url(#linear-gradient-7);}.cls-9{fill:url(#linear-gradient-8);}.cls-10{fill:url(#linear-gradient-9);}.cls-11{fill:url(#linear-gradient-10);}.cls-12{fill:url(#linear-gradient-11);}.cls-13{fill:url(#linear-gradient-12);}.cls-14{fill:url(#linear-gradient-13);}.cls-15{fill:url(#linear-gradient-14);}.cls-16{fill:url(#linear-gradient-15);}.cls-17{fill:url(#linear-gradient-16);}.cls-18{fill:url(#linear-gradient-17);}.cls-19{fill:url(#linear-gradient-18);}.cls-20{fill:url(#linear-gradient-19);}.cls-21{fill:url(#linear-gradient-20);}.cls-22{fill:url(#linear-gradient-21);}.cls-23{fill:url(#linear-gradient-22);}.cls-24{fill:url(#linear-gradient-23);}.cls-25{fill:url(#linear-gradient-24);}.cls-26{fill:url(#linear-gradient-25);}</style><linearGradient id="linear-gradient" x1="110.84" y1="186.27" x2="228.45" y2="68.65" gradientUnits="userSpaceOnUse"><stop offset="0" stop-color="#dea43b"/><stop offset="0.03" stop-color="#dfa63e"/><stop offset="0.05" stop-color="#e1ab46"/><stop offset="0.06" stop-color="#e5b455"/><stop offset="0.08" stop-color="#ebc069"/><stop offset="0.09" stop-color="#f2d184"/><stop offset="0.1" stop-color="#f9e19f"/><stop offset="0.15" stop-color="#ddbd6d"/><stop offset="0.19" stop-color="#c9a449"/><stop offset="0.34" stop-color="#e8bd5b"/><stop offset="0.52" stop-color="#ffedb6"/><stop offset="0.68" stop-color="#c9a449"/><stop offset="0.78" stop-color="#d2ac4e"/><stop offset="0.8" stop-color="#d7b45b"/><stop offset="0.85" stop-color="#e4c77b"/><stop offset="0.88" stop-color="#ecd38e"/><stop offset="0.91" stop-color="#efd795"/><stop offset="1" stop-color="#dea43b"/></linearGradient><linearGradient id="linear-gradient-2" x1="123.95" y1="199.38" x2="241.56" y2="81.77" xlink:href="#linear-gradient"/><linearGradient id="linear-gradient-3" x1="135.88" y1="211.31" x2="253.49" y2="93.7" xlink:href="#linear-gradient"/><linearGradient id="linear-gradient-4" x1="146.56" y1="221.99" x2="264.17" y2="104.38" xlink:href="#linear-gradient"/><linearGradient id="linear-gradient-5" x1="157.82" y1="233.25" x2="275.43" y2="115.64" xlink:href="#linear-gradient"/><linearGradient id="linear-gradient-6" x1="171.55" y1="246.97" x2="289.16" y2="129.36" xlink:href="#linear-gradient"/><linearGradient id="linear-gradient-7" x1="183.8" y1="259.23" x2="301.41" y2="141.62" xlink:href="#linear-gradient"/><linearGradient id="linear-gradient-8" x1="196.51" y1="271.94" x2="314.12" y2="154.33" xlink:href="#linear-gradient"/><linearGradient id="linear-gradient-9" x1="218.98" y1="294.41" x2="336.59" y2="176.8" xlink:href="#linear-gradient"/><linearGradient id="linear-gradient-10" x1="238.86" y1="314.29" x2="356.48" y2="196.68" xlink:href="#linear-gradient"/><linearGradient id="linear-gradient-11" x1="252.59" y1="328.02" x2="370.2" y2="210.41" xlink:href="#linear-gradient"/><linearGradient id="linear-gradient-12" x1="263.57" y1="339" x2="381.18" y2="221.39" xlink:href="#linear-gradient"/><linearGradient id="linear-gradient-13" x1="277.47" y1="352.9" x2="395.08" y2="235.28" xlink:href="#linear-gradient"/><linearGradient id="linear-gradient-14" x1="289.27" y1="364.7" x2="406.88" y2="247.09" xlink:href="#linear-gradient"/><linearGradient id="linear-gradient-15" x1="301.24" y1="376.67" x2="418.85" y2="259.06" xlink:href="#linear-gradient"/><linearGradient id="linear-gradient-16" x1="312.29" y1="387.72" x2="429.9" y2="270.11" xlink:href="#linear-gradient"/><linearGradient id="linear-gradient-17" x1="326.93" y1="402.35" x2="444.54" y2="284.74" xlink:href="#linear-gradient"/><linearGradient id="linear-gradient-18" x1="339.18" y1="414.61" x2="456.79" y2="297" xlink:href="#linear-gradient"/><linearGradient id="linear-gradient-19" x1="351.89" y1="427.32" x2="469.5" y2="309.71" xlink:href="#linear-gradient"/><linearGradient id="linear-gradient-20" x1="242.46" y1="319.52" x2="361.25" y2="200.73" xlink:href="#linear-gradient"/><linearGradient id="linear-gradient-21" x1="187.52" y1="328.88" x2="457.22" y2="59.18" xlink:href="#linear-gradient"/><linearGradient id="linear-gradient-22" x1="142.17" y1="223.06" x2="453.18" y2="-87.95" xlink:href="#linear-gradient"/><linearGradient id="linear-gradient-23" x1="157.15" y1="248.23" x2="478.17" y2="-72.78" xlink:href="#linear-gradient"/><linearGradient id="linear-gradient-24" x1="171.28" y1="245.71" x2="476.93" y2="-59.94" xlink:href="#linear-gradient"/><linearGradient id="linear-gradient-25" x1="153.47" y1="244.55" x2="474.48" y2="-76.47" xlink:href="#linear-gradient"/></defs><g id="Layer_2" data-name="Layer 2"><g id="Layer_1-2" data-name="Layer 1"><path class="cls-1" d="M91,282.27H86.89v3.94h5v2.05H84.27V274.69h7.57v2.06h-5v3.47H91Z"/><path class="cls-1" d="M107.29,279.49h.06l1.93-4.8h3L109,281.42l3.6,6.84h-3.18l-2-4.9h-.06l-2,4.9h-3l3.45-6.84-3.38-6.73h3Z"/><path class="cls-1" d="M131.9,284.05l0,.06a4.21,4.21,0,0,1-1.11,3.26,4.6,4.6,0,0,1-3.29,1.09,4.66,4.66,0,0,1-3.47-1.29,5,5,0,0,1-1.29-3.67v-4A5.11,5.11,0,0,1,124,275.8a4.42,4.42,0,0,1,3.36-1.3,4.91,4.91,0,0,1,3.42,1.08,4.09,4.09,0,0,1,1.16,3.27l0,.06h-2.55a2.78,2.78,0,0,0-.47-1.83,2,2,0,0,0-1.54-.52,1.67,1.67,0,0,0-1.48.71,3.88,3.88,0,0,0-.49,2.19v4a3.61,3.61,0,0,0,.53,2.19,1.86,1.86,0,0,0,1.6.72,1.76,1.76,0,0,0,1.41-.52,3,3,0,0,0,.43-1.84Z"/><path class="cls-1" d="M149.88,282.27h-4.14v3.94h5v2.05h-7.59V274.69h7.58v2.06h-4.95v3.47h4.14Z"/><path class="cls-1" d="M164.54,286.21h5.06v2.05h-7.69V274.69h2.63Z"/><path class="cls-1" d="M183.35,286.21h5.06v2.05h-7.69V274.69h2.63Z"/><path class="cls-1" d="M206.3,282.27h-4.15v3.94h5v2.05h-7.6V274.69h7.58v2.06h-4.95v3.47h4.15Z"/><path class="cls-1" d="M227.94,288.26h-2.62L221,279.6H221v8.65h-2.62V274.69H221l4.31,8.67h.06v-8.66h2.62Z"/><path class="cls-1" d="M248.46,284.05l0,.06a4.17,4.17,0,0,1-1.11,3.26,4.58,4.58,0,0,1-3.29,1.09,4.66,4.66,0,0,1-3.47-1.29,5,5,0,0,1-1.29-3.67v-4a5.12,5.12,0,0,1,1.25-3.67,4.38,4.38,0,0,1,3.35-1.3,4.91,4.91,0,0,1,3.42,1.08,4.09,4.09,0,0,1,1.16,3.27l0,.06h-2.55a2.84,2.84,0,0,0-.46-1.83,2,2,0,0,0-1.55-.52,1.68,1.68,0,0,0-1.48.71,3.88,3.88,0,0,0-.49,2.19v4a3.68,3.68,0,0,0,.53,2.19,1.86,1.86,0,0,0,1.6.72,1.75,1.75,0,0,0,1.41-.52,2.94,2.94,0,0,0,.43-1.84Z"/><path class="cls-1" d="M266.45,282.27H262.3v3.94h5v2.05h-7.6V274.69h7.58v2.06H262.3v3.47h4.15Z"/><path class="cls-1" d="M295,288.26h-2.62V274.69H295Z"/><path class="cls-1" d="M316.41,288.26h-2.63l-4.3-8.66h-.06v8.65H306.8V274.69h2.62l4.31,8.67h0v-8.66h2.63Z"/><path class="cls-1" d="M348.58,282.27h-4.15v3.94h5v2.05h-7.6V274.69h7.58v2.06h-4.95v3.47h4.15Z"/><path class="cls-1" d="M364.73,284.79l.11.57h.05l.12-.54,2.34-10.13h2.77l-3.88,13.57h-2.73l-3.87-13.57h2.77Z"/><path class="cls-1" d="M387.56,282.27h-4.15v3.94h5v2.05h-7.6V274.69h7.58v2.06h-4.95v3.47h4.15Z"/><path class="cls-1" d="M402.21,282.82v5.44h-2.62V274.7h4.06a4.51,4.51,0,0,1,3.18,1.06,3.77,3.77,0,0,1,1.16,2.93,3.34,3.34,0,0,1-.49,1.83,3.48,3.48,0,0,1-1.41,1.23,2.58,2.58,0,0,1,1.53,1.17,4.12,4.12,0,0,1,.46,2.05v1a6.27,6.27,0,0,0,.13,1.19,1.67,1.67,0,0,0,.47.92v.19H406a1.54,1.54,0,0,1-.42-1,12.22,12.22,0,0,1-.08-1.35V285a2.65,2.65,0,0,0-.43-1.6,1.46,1.46,0,0,0-1.23-.57Zm0-2.05h1.42a1.62,1.62,0,0,0,1.29-.51,2.1,2.1,0,0,0,.44-1.44,2.4,2.4,0,0,0-.43-1.51,1.55,1.55,0,0,0-1.28-.56h-1.44Z"/><path class="cls-1" d="M423.45,280.59h.06l2.34-5.9h2.86l-4,8.73v4.84h-2.61v-5l-3.89-8.57h2.87Z"/><path class="cls-1" d="M459.13,284.74a1.85,1.85,0,0,0-.42-1.28,4,4,0,0,0-1.48-.92,9.56,9.56,0,0,1-3.14-1.67,3.31,3.31,0,0,1-1.06-2.61,3.44,3.44,0,0,1,1.21-2.71,5,5,0,0,1,6.24.07,3.8,3.8,0,0,1,1.17,3l0,.05h-2.56a2.37,2.37,0,0,0-.47-1.6,1.68,1.68,0,0,0-1.34-.54,1.46,1.46,0,0,0-1.18.5,1.86,1.86,0,0,0-.42,1.24,1.5,1.5,0,0,0,.48,1.14,6.35,6.35,0,0,0,1.63,1,7.54,7.54,0,0,1,3,1.65,3.6,3.6,0,0,1,1,2.68,3.4,3.4,0,0,1-1.19,2.74,4.73,4.73,0,0,1-3.14,1,5.19,5.19,0,0,1-3.3-1.08,3.81,3.81,0,0,1-1.32-3.27l0-.06h2.56a2.71,2.71,0,0,0,.52,1.84,2,2,0,0,0,1.52.55,1.66,1.66,0,0,0,1.28-.46A1.79,1.79,0,0,0,459.13,284.74Z"/><path class="cls-1" d="M481.17,276.75H478v11.51h-2.64V276.75h-3.1v-2.06h8.93Z"/><path class="cls-1" d="M498.77,282.27h-4.15v3.94h5v2.05H492V274.69h7.58v2.06h-4.95v3.47h4.15Z"/><path class="cls-1" d="M513.43,283.35v4.91H510.8V274.69h4.54a4.35,4.35,0,0,1,3.23,1.2,4.72,4.72,0,0,1,0,6.27,4.39,4.39,0,0,1-3.23,1.19Zm0-2.06h1.91a1.54,1.54,0,0,0,1.34-.63,2.67,2.67,0,0,0,.46-1.61,2.75,2.75,0,0,0-.46-1.65,1.53,1.53,0,0,0-1.34-.65h-1.91Z"/><path class="cls-1" d="M3,251.64h19.3L54,172.4H90.35l10.83,30h21.55L74.85,85.77h-4.2Zm80.63-96.4H60.83L72.34,126.4Z"/><path class="cls-1" d="M581.66,251.64H601L533.35,85.77h-4.2l-47.88,116.6h21.55l10.83-30H550Zm-38.49-96.4H520.33l11.33-28.84Z"/><path class="cls-1" d="M186.94,202.37h17.13l-35.18-83.06H165l-35.08,83.06h15.54l8.1-22.3h25.6Zm-13.15-36.06H159.06l7.5-18.42Z"/><path class="cls-1" d="M251.48,202.37h17.45L249.11,168a22.34,22.34,0,0,0,5.32-4.52,24.28,24.28,0,0,0,4.78-8.68,33,33,0,0,0,1.41-9.52,26.15,26.15,0,0,0-2.27-11.1,23.35,23.35,0,0,0-6.33-8.25,27.23,27.23,0,0,0-9.32-5,38,38,0,0,0-11.36-1.63H208.75v83.06h15.13V172.12h8.71l1,0Zm-19.1-45.07h-8.5V134h9.24a12.92,12.92,0,0,1,5.65,1.11,10.58,10.58,0,0,1,3.66,2.83,12,12,0,0,1,2.09,3.77,12.71,12.71,0,0,1,.66,3.94,13.83,13.83,0,0,1-.62,4,11.64,11.64,0,0,1-2,3.75,9.87,9.87,0,0,1-3.73,2.78A15.86,15.86,0,0,1,232.38,157.3Z"/><path class="cls-1" d="M303.79,202.37c5.58,0,10.46-2.54,14.76-4.77l.83-.43a28.06,28.06,0,0,0,11.24-10.44A29.76,29.76,0,0,0,334.75,171V119.31h-15v51.37a15.18,15.18,0,0,1-2,7.9,14.26,14.26,0,0,1-5.59,5.41,17.1,17.1,0,0,1-8.33,2,15.88,15.88,0,0,1-8-2,15.08,15.08,0,0,1-5.68-5.45,14.64,14.64,0,0,1-2.09-7.86V119.31H272.94V171a29.76,29.76,0,0,0,4.13,15.74,28,28,0,0,0,11.24,10.44l.89.46C293.47,199.85,298.31,202.37,303.79,202.37Z"/><polygon class="cls-1" points="417.91 202.37 421.85 202.37 421.85 119.31 406.72 119.31 406.91 170.51 355 117 350.94 117 350.94 202.37 366.07 202.37 365.88 149.6 417.91 202.37"/><polygon class="cls-1" points="458.65 202.37 473.77 202.37 473.77 172.9 503.79 119.31 485.7 119.31 466.5 155.46 447.02 119.31 428.85 119.31 458.65 172.89 458.65 202.37"/><path class="cls-2" d="M55,224.87h5.92c5.09,0,7,2,7,5.4v1c0,3.41-1.42,4.42-2.85,4.87,1.5.42,3.45,1.43,3.45,4.84v1.82c0,4.13-2,6.26-7.35,6.26H55Zm5.55,10c2.69,0,3.5-.74,3.5-3.31v-1c0-2.08-.95-3-3.38-3H59v7.3ZM59,246.35h1.75c3,0,3.72-1.07,3.72-3.66v-1.64c0-2.47-.93-3.53-3.93-3.53H59Z"/><path class="cls-3" d="M85,224.87v18.55c0,1.86.8,3,2.84,3s2.77-1.19,2.77-3V224.87h4.14v18.47c0,3.78-2.17,6-7,6-4.63,0-6.89-2-6.89-6V224.87Z"/><path class="cls-4" d="M112.3,224.87V249h-4.13V224.87Z"/><path class="cls-5" d="M125.86,224.87H130v21.26h7.74l-.39,2.9H125.86Z"/><path class="cls-6" d="M149,224.87h6.16c6.58,0,7.85,2.9,7.85,7.11v9.38c0,3.7-.77,7.67-7.94,7.67H149Zm4.12,21.38h1.67c3.37,0,4-1.61,4-4.39V231.68c0-2.46-.56-4-4-4h-1.66Z"/><path class="cls-7" d="M186.82,237.71H180v8.34h7.82l-.54,3h-11.4V224.87H187.2v3H180v6.86h6.83Z"/><path class="cls-8" d="M203.57,238v11h-4.13V224.87h6.07c4.66,0,7.22,1.51,7.22,5.71v1c0,3.53-1.74,4.64-3.13,5.06,1.86.62,2.83,1.69,2.83,5a52.47,52.47,0,0,0,.29,7.44h-4c-.4-1.48-.33-5.49-.33-7.22,0-3-.51-3.78-3.39-3.78Zm0-2.7h1.48c2.68,0,3.54-1,3.54-3.6v-.93c0-2-.61-3.23-3.46-3.23h-1.56Z"/><path class="cls-9" d="M228.66,242.05v1.45c0,2,.82,3.09,2.77,3.09s2.65-1.32,2.65-3.34c0-2.7-.75-3.63-4-5.64s-5-3.32-5-6.89c0-3.13,1.2-6.22,6.45-6.21s6.24,2.86,6.24,5.66v1.22h-4.1v-1.13c0-1.82-.41-2.95-2.21-2.95s-2.25,1.22-2.25,2.94c0,1.94.48,2.78,3.23,4.38,4.47,2.62,5.85,4.11,5.85,8.14,0,3.42-1.4,6.6-6.91,6.6s-6.79-2.73-6.79-5.91v-1.41Z"/><path class="cls-10" d="M283.79,234.45,279,243.61c-2,3.81-4.11,5.69-7.75,5.69-4.45,0-6.34-2.69-6.34-6.55s1.86-5.25,5.78-7.77c2.85-1.83,3.63-2.72,3.63-5.15,0-1.57-.34-2.6-1.88-2.6s-1.9,1.16-1.9,2.6a6.09,6.09,0,0,0,1.59,4.71L283.53,249h-4.61l-9.72-12.22c-1.94-2.44-2.5-3.75-2.5-6.67,0-3.53,2-5.56,5.7-5.56,3.82,0,5.64,1.84,5.64,5.25s-1.27,4.66-5.39,7.22c-3,1.88-3.69,2.73-3.69,5.44,0,2.45,1,3.62,2.84,3.62s2.6-1,3.76-3.28l4.29-8.38Z"/><path class="cls-11" d="M311,224.87h6.16c6.58,0,7.85,2.9,7.85,7.11v9.38c0,3.7-.77,7.67-7.94,7.67H311Zm4.13,21.38h1.66c3.38,0,4-1.61,4-4.39V231.68c0-2.46-.56-4-4-4h-1.65Z"/><path class="cls-12" d="M348.9,237.71h-6.82v8.34h7.81l-.53,3H338V224.87h11.33v3h-7.2v6.86h6.82Z"/><path class="cls-13" d="M365.77,249l-5.38-24.16h4.46l1.81,10.25c.58,3.31,1.34,7,1.62,9.68h.07c.27-2.53,1.08-6.27,1.62-9.6l1.77-10.33h4.41L370.85,249Z"/><path class="cls-14" d="M398.66,237.71h-6.82v8.34h7.81l-.54,3h-11.4V224.87H399v3h-7.2v6.86h6.82Z"/><path class="cls-15" d="M411.29,224.87h4.12v21.26h7.74l-.39,2.9H411.29Z"/><path class="cls-16" d="M448.06,231.08v11.66c0,4.47-2.38,6.63-7.33,6.63s-6.94-2.3-6.94-6.58V231.07c0-4.41,2.72-6.54,7.2-6.54S448.06,226.78,448.06,231.08ZM438,230.82v12.31c0,2.31,1.07,3.31,2.93,3.31s2.94-.95,2.94-3.39V230.81c0-2.19-.91-3.32-3-3.32S438,228.53,438,230.82Z"/><path class="cls-17" d="M461,224.87h6.33c4.76,0,7.11,1.86,7.11,6v1.44c0,3.84-1.63,6.5-7.36,6.5h-2V249H461Zm4.12,11.25h1.53c3.18,0,3.69-1.49,3.69-3.92V231c0-1.84-.47-3.4-3.33-3.4h-1.89Z"/><path class="cls-18" d="M497.58,237.71h-6.83v8.34h7.82l-.54,3h-11.4V224.87H498v3h-7.21v6.86h6.83Z"/><path class="cls-19" d="M514.33,238v11H510.2V224.87h6.07c4.66,0,7.22,1.51,7.22,5.71v1c0,3.53-1.74,4.64-3.13,5.06,1.86.62,2.83,1.69,2.83,5a50.93,50.93,0,0,0,.3,7.44h-4c-.4-1.48-.33-5.49-.33-7.22,0-3-.51-3.78-3.39-3.78Zm0-2.7h1.48c2.68,0,3.54-1,3.54-3.6v-.93c0-2-.61-3.23-3.46-3.23h-1.56Z"/><path class="cls-20" d="M539.42,242.05v1.45c0,2,.82,3.09,2.77,3.09s2.65-1.32,2.65-3.34c0-2.7-.75-3.63-4-5.64s-5-3.32-5-6.89c0-3.13,1.21-6.22,6.45-6.21s6.24,2.86,6.24,5.66v1.22h-4.09v-1.13c0-1.82-.42-2.95-2.22-2.95s-2.25,1.22-2.25,2.94c0,1.94.48,2.78,3.23,4.38,4.47,2.62,5.86,4.11,5.86,8.14,0,3.42-1.41,6.6-6.92,6.6s-6.79-2.73-6.79-5.91v-1.41Z"/><path class="cls-21" d="M604,260.81H0a28.43,28.43,0,0,1,1.66-3.31H602.34A28.43,28.43,0,0,0,604,260.81Z"/><path class="cls-22" d="M561.63,215.23H42.38A28.45,28.45,0,0,1,44,211.91H560A28.55,28.55,0,0,0,561.63,215.23Z"/><polygon class="cls-23" points="288.07 52.29 272.94 60.73 272.94 108.72 288.07 108.72 288.07 52.29"/><path class="cls-24" d="M311.34,67.75V35.87L297,31.1V168.33a7.16,7.16,0,0,0,7.11,7.16h0a7.16,7.16,0,0,0,7.19-7.16V67.75Z"/><polygon class="cls-25" points="319.73 108.72 334.75 108.72 334.75 77.95 319.73 70.78 319.73 108.72"/><path class="cls-26" d="M301.87,0A145.94,145.94,0,0,0,160.19,111h14.19l5.76,13.58,20.33.13V111h30.87a46.57,46.57,0,0,1,13.83,2,35.67,35.67,0,0,1,12.13,6.48,31.11,31.11,0,0,1,5.3,5.64H268V57.81l24.1-13.45V24.19l24.25,8.1V63.64l23.4,11.17v33.9h18.79l16.57,17.09,23.38.16L398.4,111h45.15A145.94,145.94,0,0,0,301.87,0Z"/></g></g></svg>